<svg width="39" height="39" viewBox="0 0 39 39" fill="none" xmlns="http://www.w3.org/2000/svg">
<path d="M19.5 0C8.72812 0 0 8.72812 0 19.5C0 30.2719 8.72812 39 19.5 39C30.2719 39 39 30.2719 39 19.5C39 8.72812 30.2719 0 19.5 0ZM24.4406 26.5594L19.5 21.6188L14.5594 26.5594C13.9781 27.1406 13.0219 27.1406 12.4406 26.5594C12.15 26.2687 12 25.8844 12 25.5C12 25.1156 12.15 24.7313 12.4406 24.4406L17.3812 19.5L12.4406 14.5594C12.15 14.2688 12 13.8844 12 13.5C12 13.1156 12.15 12.7312 12.4406 12.4406C13.0219 11.8594 13.9781 11.8594 14.5594 12.4406L19.5 17.3812L24.4406 12.4406C25.0219 11.8594 25.9781 11.8594 26.5594 12.4406C27.1406 13.0219 27.1406 13.9781 26.5594 14.5594L21.6188 19.5L26.5594 24.4406C27.1406 25.0219 27.1406 25.9781 26.5594 26.5594C25.9781 27.15 25.0219 27.15 24.4406 26.5594Z" fill="#FF6467"/>
</svg>
