<svg width="123" height="189" viewBox="0 0 123 189" fill="none" xmlns="http://www.w3.org/2000/svg">
<path d="M61.5 0C95.4655 0 123 27.5345 123 61.5V127.5C123 161.466 95.4655 189 61.5 189C27.5345 189 0 161.466 0 127.5V61.5C2.54516e-06 27.5345 27.5345 0 61.5 0ZM61.5 8C31.9528 8 8 31.9528 8 61.5V127.5C8 157.047 31.9528 181 61.5 181C91.0472 181 115 157.047 115 127.5V61.5C115 31.9528 91.0472 8 61.5 8ZM61 40C66.5228 40 71 44.4772 71 50V86C71 91.5228 66.5228 96 61 96C55.4772 96 51 91.5228 51 86V50C51 44.4772 55.4772 40 61 40Z" fill="white"/>
</svg>
